<svg xmlns="http://www.w3.org/2000/svg" viewBox="0 0 512 512">
  <g id="ears">
    <rect x="36" y="206" width="40" height="100" rx="20" fill="#A3C9F0" />
    <rect x="436" y="206" width="40" height="100" rx="20" fill="#A3C9F0" />
  </g>
  <g id="face-base">
    <rect x="56" y="86" width="400" height="340" rx="140" ry="140" fill="#F4F9FF" stroke="#4A90E2" stroke-width="16" />
    <rect x="76" y="106" width="360" height="300" rx="120" ry="120" fill="none" stroke="#FFFFFF" stroke-width="12" opacity="0.8" />
  </g>
  <path d="M 390 160 Q 400 180 390 190 Q 380 180 390 160" fill="#A3C9F0" />
  <g id="cheeks">
    <ellipse cx="130" cy="270" rx="32" ry="18" fill="#FF8DA1" opacity="0.2" />
    <ellipse cx="382" cy="270" rx="32" ry="18" fill="#FF8DA1" opacity="0.2" />
  </g>
  <g id="eyes">
    <g transform="translate(170, 204) rotate(15) translate(-170, -204)">
      <rect x="146" y="176" width="48" height="56" rx="24" ry="24" fill="#2A3B4C" />
      <circle cx="162" cy="190" r="8" fill="#FFFFFF" />
    </g>
    <g transform="translate(342, 204) rotate(-15) translate(-342, -204)">
      <rect x="318" y="176" width="48" height="56" rx="24" ry="24" fill="#2A3B4C" />
      <circle cx="334" cy="190" r="8" fill="#FFFFFF" />
    </g>
  </g>
  <g id="mouth">
    <path d="M 210 290 Q 230 275 256 290 Q 280 305 302 290" fill="none" stroke="#2A3B4C" stroke-width="16" stroke-linecap="round" />
  </g>
</svg>
