<svg xmlns="http://www.w3.org/2000/svg" viewBox="0 0 512 512">
  <g id="ears">
    <rect x="36" y="206" width="40" height="100" rx="20" fill="#A3C9F0" />
    <rect x="436" y="206" width="40" height="100" rx="20" fill="#A3C9F0" />
  </g>
  
  <g id="thinking-indicators">
    <path d="M 200 60 A 60 60 0 0 1 312 60" fill="none" stroke="#4A90E2" stroke-width="10" stroke-linecap="round" opacity="0.8" />
    <circle cx="256" cy="45" r="6" fill="#4A90E2" />
    <circle cx="180" cy="75" r="5" fill="#A3C9F0" opacity="0.6" />
    <circle cx="332" cy="75" r="5" fill="#A3C9F0" opacity="0.6" />
  </g>

  <g id="face-base">
    <rect x="56" y="86" width="400" height="340" rx="140" ry="140" fill="#F4F9FF" stroke="#4A90E2" stroke-width="16" />
    <rect x="76" y="106" width="360" height="300" rx="120" ry="120" fill="none" stroke="#FFFFFF" stroke-width="12" opacity="0.8" />
  </g>

  <g id="cheeks">
    <ellipse cx="130" cy="275" rx="30" ry="15" fill="#FF8DA1" opacity="0.3" />
    <ellipse cx="382" cy="275" rx="30" ry="15" fill="#FF8DA1" opacity="0.3" />
  </g>

  <g id="eyes">
    <rect x="146" y="155" width="52" height="80" rx="26" ry="26" fill="#2A3B4C" />
    <circle cx="172" cy="175" r="12" fill="#FFFFFF" />
    <rect x="314" y="155" width="52" height="80" rx="26" ry="26" fill="#2A3B4C" />
    <circle cx="340" cy="175" r="12" fill="#FFFFFF" />
  </g>

  <g id="mouth">
    <path d="M 236 305 C 236 305 256 300 276 305 C 276 305 256 325 236 305 Z" fill="#FF8DA1" stroke="#2A3B4C" stroke-width="14" stroke-linecap="round" stroke-linejoin="round" />
  </g>
</svg>
